<?xml version="1.0" encoding="UTF-8" standalone="no"?>
<!DOCTYPE svg PUBLIC "-//W3C//DTD SVG 1.1//EN"
 "http://www.w3.org/Graphics/SVG/1.1/DTD/svg11.dtd">
<!-- Generated by graphviz version 2.47.0 (20210316.0004)
 -->
<!-- Title: dependencies Pages: 1 -->
<svg width="1591pt" height="284pt"
 viewBox="0.00 0.00 1591.00 284.00" xmlns="http://www.w3.org/2000/svg" xmlns:xlink="http://www.w3.org/1999/xlink">
<g id="graph0" class="graph" transform="scale(1 1) rotate(0) translate(4 280)">
<title>dependencies</title>
<polygon fill="white" stroke="transparent" points="-4,4 -4,-280 1587,-280 1587,4 -4,4"/>
<text text-anchor="start" x="770.51" y="-42.4" font-family="Times-12" font-weight="bold" font-size="14.00">Legend</text>
<polygon fill="#ffffb3" stroke="transparent" points="557.5,-10 557.5,-30 577.5,-30 577.5,-10 557.5,-10"/>
<text text-anchor="start" x="581.13" y="-15.4" font-family="Times-12" font-size="14.00"> &#160;Declarations</text>
<polygon fill="#8dd3c7" stroke="transparent" points="670.5,-10 670.5,-30 690.5,-30 690.5,-10 670.5,-10"/>
<text text-anchor="start" x="694.23" y="-15.4" font-family="Times-12" font-size="14.00"> &#160;Module</text>
<polygon fill="#80b1d3" stroke="transparent" points="756.5,-10 756.5,-30 776.5,-30 776.5,-10 756.5,-10"/>
<text text-anchor="start" x="780.28" y="-15.4" font-family="Times-12" font-size="14.00"> &#160;Bootstrap</text>
<polygon fill="#fdb462" stroke="transparent" points="853.5,-10 853.5,-30 873.5,-30 873.5,-10 853.5,-10"/>
<text text-anchor="start" x="877.17" y="-15.4" font-family="Times-12" font-size="14.00"> &#160;Providers</text>
<polygon fill="#fb8072" stroke="transparent" points="949.5,-10 949.5,-30 969.5,-30 969.5,-10 949.5,-10"/>
<text text-anchor="start" x="973.23" y="-15.4" font-family="Times-12" font-size="14.00"> &#160;Exports</text>
<g id="clust1" class="cluster">
<title>cluster_AppModule</title>
<polygon fill="none" stroke="black" stroke-dasharray="1,5" points="8,-70 8,-268 1575,-268 1575,-70 8,-70"/>
</g>
<g id="clust14" class="cluster">
<title>cluster_AppModule_bootstrap</title>
<polygon fill="none" stroke="black" points="719,-208 719,-260 843,-260 843,-208 719,-208"/>
</g>
<g id="clust12" class="cluster">
<title>cluster_AppModule_imports</title>
<polygon fill="none" stroke="black" points="1423,-78 1423,-130 1567,-130 1567,-78 1423,-78"/>
</g>
<g id="clust2" class="cluster">
<title>cluster_AppModule_declarations</title>
<polygon fill="none" stroke="black" points="16,-78 16,-130 1415,-130 1415,-78 16,-78"/>
</g>
<!-- AppComponent -->
<g id="node1" class="node">
<title>AppComponent</title>
<polygon fill="#ffffb3" stroke="black" points="1406.94,-122 1301.06,-122 1301.06,-86 1406.94,-86 1406.94,-122"/>
<text text-anchor="middle" x="1354" y="-99.8" font-family="Times,serif" font-size="14.00">AppComponent</text>
</g>
<!-- AppModule -->
<g id="node10" class="node">
<title>AppModule</title>
<polygon fill="#8dd3c7" stroke="black" points="822.66,-187 819.66,-191 798.66,-191 795.66,-187 739.34,-187 739.34,-151 822.66,-151 822.66,-187"/>
<text text-anchor="middle" x="781" y="-164.8" font-family="Times,serif" font-size="14.00">AppModule</text>
</g>
<!-- AppComponent&#45;&gt;AppModule -->
<g id="edge1" class="edge">
<title>AppComponent&#45;&gt;AppModule</title>
<path fill="none" stroke="black" d="M1354,-122.13C1354,-142.57 1354,-173 1354,-173 1354,-173 832.67,-173 832.67,-173"/>
<polygon fill="black" stroke="black" points="832.67,-169.5 822.67,-173 832.67,-176.5 832.67,-169.5"/>
</g>
<!-- CadastrarProdutoComponent -->
<g id="node2" class="node">
<title>CadastrarProdutoComponent</title>
<polygon fill="#ffffb3" stroke="black" points="1283.8,-122 1104.2,-122 1104.2,-86 1283.8,-86 1283.8,-122"/>
<text text-anchor="middle" x="1194" y="-99.8" font-family="Times,serif" font-size="14.00">CadastrarProdutoComponent</text>
</g>
<!-- CadastrarProdutoComponent&#45;&gt;AppModule -->
<g id="edge2" class="edge">
<title>CadastrarProdutoComponent&#45;&gt;AppModule</title>
<path fill="none" stroke="black" d="M1194,-122.27C1194,-140.56 1194,-166 1194,-166 1194,-166 832.87,-166 832.87,-166"/>
<polygon fill="black" stroke="black" points="832.87,-162.5 822.87,-166 832.87,-169.5 832.87,-162.5"/>
</g>
<!-- EditarProdutoComponent -->
<g id="node3" class="node">
<title>EditarProdutoComponent</title>
<polygon fill="#ffffb3" stroke="black" points="1085.88,-122 926.12,-122 926.12,-86 1085.88,-86 1085.88,-122"/>
<text text-anchor="middle" x="1006" y="-99.8" font-family="Times,serif" font-size="14.00">EditarProdutoComponent</text>
</g>
<!-- EditarProdutoComponent&#45;&gt;AppModule -->
<g id="edge3" class="edge">
<title>EditarProdutoComponent&#45;&gt;AppModule</title>
<path fill="none" stroke="black" d="M1006,-122.01C1006,-138.05 1006,-159 1006,-159 1006,-159 832.79,-159 832.79,-159"/>
<polygon fill="black" stroke="black" points="832.79,-155.5 822.79,-159 832.79,-162.5 832.79,-155.5"/>
</g>
<!-- FooterComponent -->
<g id="node4" class="node">
<title>FooterComponent</title>
<polygon fill="#ffffb3" stroke="black" points="907.88,-122 790.12,-122 790.12,-86 907.88,-86 907.88,-122"/>
<text text-anchor="middle" x="849" y="-99.8" font-family="Times,serif" font-size="14.00">FooterComponent</text>
</g>
<!-- FooterComponent&#45;&gt;AppModule -->
<g id="edge4" class="edge">
<title>FooterComponent&#45;&gt;AppModule</title>
<path fill="none" stroke="black" d="M806.44,-122.11C806.44,-122.11 806.44,-140.99 806.44,-140.99"/>
<polygon fill="black" stroke="black" points="802.94,-140.99 806.44,-150.99 809.94,-140.99 802.94,-140.99"/>
</g>
<!-- HomeComponent -->
<g id="node5" class="node">
<title>HomeComponent</title>
<polygon fill="#ffffb3" stroke="black" points="771.55,-122 656.45,-122 656.45,-86 771.55,-86 771.55,-122"/>
<text text-anchor="middle" x="714" y="-99.8" font-family="Times,serif" font-size="14.00">HomeComponent</text>
</g>
<!-- HomeComponent&#45;&gt;AppModule -->
<g id="edge5" class="edge">
<title>HomeComponent&#45;&gt;AppModule</title>
<path fill="none" stroke="black" d="M755.47,-122.11C755.47,-122.11 755.47,-140.99 755.47,-140.99"/>
<polygon fill="black" stroke="black" points="751.97,-140.99 755.47,-150.99 758.97,-140.99 751.97,-140.99"/>
</g>
<!-- ListarProdutoComponent -->
<g id="node6" class="node">
<title>ListarProdutoComponent</title>
<polygon fill="#ffffb3" stroke="black" points="638.32,-122 479.68,-122 479.68,-86 638.32,-86 638.32,-122"/>
<text text-anchor="middle" x="559" y="-99.8" font-family="Times,serif" font-size="14.00">ListarProdutoComponent</text>
</g>
<!-- ListarProdutoComponent&#45;&gt;AppModule -->
<g id="edge6" class="edge">
<title>ListarProdutoComponent&#45;&gt;AppModule</title>
<path fill="none" stroke="black" d="M559,-122.01C559,-138.05 559,-159 559,-159 559,-159 729.24,-159 729.24,-159"/>
<polygon fill="black" stroke="black" points="729.24,-162.5 739.24,-159 729.24,-155.5 729.24,-162.5"/>
</g>
<!-- LoginComponent -->
<g id="node7" class="node">
<title>LoginComponent</title>
<polygon fill="#ffffb3" stroke="black" points="461.28,-122 346.72,-122 346.72,-86 461.28,-86 461.28,-122"/>
<text text-anchor="middle" x="404" y="-99.8" font-family="Times,serif" font-size="14.00">LoginComponent</text>
</g>
<!-- LoginComponent&#45;&gt;AppModule -->
<g id="edge7" class="edge">
<title>LoginComponent&#45;&gt;AppModule</title>
<path fill="none" stroke="black" d="M404,-122.27C404,-140.56 404,-166 404,-166 404,-166 729.21,-166 729.21,-166"/>
<polygon fill="black" stroke="black" points="729.21,-169.5 739.21,-166 729.21,-162.5 729.21,-169.5"/>
</g>
<!-- NavbarComponent -->
<g id="node8" class="node">
<title>NavbarComponent</title>
<polygon fill="#ffffb3" stroke="black" points="328.03,-122 205.97,-122 205.97,-86 328.03,-86 328.03,-122"/>
<text text-anchor="middle" x="267" y="-99.8" font-family="Times,serif" font-size="14.00">NavbarComponent</text>
</g>
<!-- NavbarComponent&#45;&gt;AppModule -->
<g id="edge8" class="edge">
<title>NavbarComponent&#45;&gt;AppModule</title>
<path fill="none" stroke="black" d="M267,-122.13C267,-142.57 267,-173 267,-173 267,-173 728.94,-173 728.94,-173"/>
<polygon fill="black" stroke="black" points="728.94,-176.5 738.94,-173 728.94,-169.5 728.94,-176.5"/>
</g>
<!-- PaginaProdutoComponent -->
<g id="node9" class="node">
<title>PaginaProdutoComponent</title>
<polygon fill="#ffffb3" stroke="black" points="187.77,-122 24.23,-122 24.23,-86 187.77,-86 187.77,-122"/>
<text text-anchor="middle" x="106" y="-99.8" font-family="Times,serif" font-size="14.00">PaginaProdutoComponent</text>
</g>
<!-- PaginaProdutoComponent&#45;&gt;AppModule -->
<g id="edge9" class="edge">
<title>PaginaProdutoComponent&#45;&gt;AppModule</title>
<path fill="none" stroke="black" d="M106,-122.01C106,-144.49 106,-180 106,-180 106,-180 729.29,-180 729.29,-180"/>
<polygon fill="black" stroke="black" points="729.29,-183.5 739.29,-180 729.29,-176.5 729.29,-183.5"/>
</g>
<!-- AppComponent  -->
<g id="node12" class="node">
<title>AppComponent </title>
<polygon fill="#80b1d3" stroke="black" points="835.44,-252 726.56,-252 726.56,-216 835.44,-216 835.44,-252"/>
<text text-anchor="middle" x="781" y="-229.8" font-family="Times,serif" font-size="14.00">AppComponent </text>
</g>
<!-- AppModule&#45;&gt;AppComponent  -->
<g id="edge11" class="edge">
<title>AppModule&#45;&gt;AppComponent </title>
<path fill="none" stroke="black" stroke-dasharray="1,5" d="M781,-187.11C781,-187.11 781,-205.99 781,-205.99"/>
<polygon fill="black" stroke="black" points="777.5,-205.99 781,-215.99 784.5,-205.99 777.5,-205.99"/>
</g>
<!-- AppRoutingModule -->
<g id="node11" class="node">
<title>AppRoutingModule</title>
<polygon fill="#8dd3c7" stroke="black" points="1559.27,-122 1556.27,-126 1535.27,-126 1532.27,-122 1430.73,-122 1430.73,-86 1559.27,-86 1559.27,-122"/>
<text text-anchor="middle" x="1495" y="-99.8" font-family="Times,serif" font-size="14.00">AppRoutingModule</text>
</g>
<!-- AppRoutingModule&#45;&gt;AppModule -->
<g id="edge10" class="edge">
<title>AppRoutingModule&#45;&gt;AppModule</title>
<path fill="none" stroke="black" d="M1495,-122.01C1495,-144.49 1495,-180 1495,-180 1495,-180 832.74,-180 832.74,-180"/>
<polygon fill="black" stroke="black" points="832.74,-176.5 822.74,-180 832.74,-183.5 832.74,-176.5"/>
</g>
</g>
</svg>
