<?xml version="1.0" encoding="UTF-8" standalone="no"?>
<!DOCTYPE svg PUBLIC "-//W3C//DTD SVG 1.1//EN"
 "http://www.w3.org/Graphics/SVG/1.1/DTD/svg11.dtd">
<!-- Generated by graphviz version 2.47.0 (20210316.0004)
 -->
<!-- Title: dependencies Pages: 1 -->
<svg width="1591pt" height="284pt"
 viewBox="0.00 0.00 1591.00 284.00" xmlns="http://www.w3.org/2000/svg" xmlns:xlink="http://www.w3.org/1999/xlink">
<g id="graph0" class="graph" transform="scale(1 1) rotate(0) translate(4 280)">
<title>dependencies</title>
<polygon fill="white" stroke="transparent" points="-4,4 -4,-280 1587,-280 1587,4 -4,4"/>
<text text-anchor="start" x="770.51" y="-42.4" font-family="Times-12" font-weight="bold" font-size="14.00">Legend</text>
<polygon fill="#ffffb3" stroke="transparent" points="557.5,-10 557.5,-30 577.5,-30 577.5,-10 557.5,-10"/>
<text text-anchor="start" x="581.13" y="-15.4" font-family="Times-12" font-size="14.00"> &#160;Declarations</text>
<polygon fill="#8dd3c7" stroke="transparent" points="670.5,-10 670.5,-30 690.5,-30 690.5,-10 670.5,-10"/>
<text text-anchor="start" x="694.23" y="-15.4" font-family="Times-12" font-size="14.00"> &#160;Module</text>
<polygon fill="#80b1d3" stroke="transparent" points="756.5,-10 756.5,-30 776.5,-30 776.5,-10 756.5,-10"/>
<text text-anchor="start" x="780.28" y="-15.4" font-family="Times-12" font-size="14.00"> &#160;Bootstrap</text>
<polygon fill="#fdb462" stroke="transparent" points="853.5,-10 853.5,-30 873.5,-30 873.5,-10 853.5,-10"/>
<text text-anchor="start" x="877.17" y="-15.4" font-family="Times-12" font-size="14.00"> &#160;Providers</text>
<polygon fill="#fb8072" stroke="transparent" points="949.5,-10 949.5,-30 969.5,-30 969.5,-10 949.5,-10"/>
<text text-anchor="start" x="973.23" y="-15.4" font-family="Times-12" font-size="14.00"> &#160;Exports</text>
<g id="clust1" class="cluster">
<title>cluster_AppModule</title>
<polygon fill="none" stroke="black" stroke-dasharray="1,5" points="8,-70 8,-268 1575,-268 1575,-70 8,-70"/>
</g>
<g id="clust2" class="cluster">
<title>cluster_AppModule_declarations</title>
<polygon fill="none" stroke="black" points="168,-78 168,-130 1567,-130 1567,-78 168,-78"/>
</g>
<g id="clust12" class="cluster">
<title>cluster_AppModule_imports</title>
<polygon fill="none" stroke="black" points="16,-78 16,-130 160,-130 160,-78 16,-78"/>
</g>
<g id="clust14" class="cluster">
<title>cluster_AppModule_bootstrap</title>
<polygon fill="none" stroke="black" points="726,-208 726,-260 850,-260 850,-208 726,-208"/>
</g>
<!-- AppComponent -->
<g id="node1" class="node">
<title>AppComponent</title>
<polygon fill="#ffffb3" stroke="black" points="1558.94,-122 1453.06,-122 1453.06,-86 1558.94,-86 1558.94,-122"/>
<text text-anchor="middle" x="1506" y="-99.8" font-family="Times,serif" font-size="14.00">AppComponent</text>
</g>
<!-- AppModule -->
<g id="node10" class="node">
<title>AppModule</title>
<polygon fill="#8dd3c7" stroke="black" points="829.66,-187 826.66,-191 805.66,-191 802.66,-187 746.34,-187 746.34,-151 829.66,-151 829.66,-187"/>
<text text-anchor="middle" x="788" y="-164.8" font-family="Times,serif" font-size="14.00">AppModule</text>
</g>
<!-- AppComponent&#45;&gt;AppModule -->
<g id="edge1" class="edge">
<title>AppComponent&#45;&gt;AppModule</title>
<path fill="none" stroke="black" d="M1506,-122.01C1506,-144.49 1506,-180 1506,-180 1506,-180 839.71,-180 839.71,-180"/>
<polygon fill="black" stroke="black" points="839.71,-176.5 829.71,-180 839.71,-183.5 839.71,-176.5"/>
</g>
<!-- CadastrarProdutoComponent -->
<g id="node2" class="node">
<title>CadastrarProdutoComponent</title>
<polygon fill="#ffffb3" stroke="black" points="1435.8,-122 1256.2,-122 1256.2,-86 1435.8,-86 1435.8,-122"/>
<text text-anchor="middle" x="1346" y="-99.8" font-family="Times,serif" font-size="14.00">CadastrarProdutoComponent</text>
</g>
<!-- CadastrarProdutoComponent&#45;&gt;AppModule -->
<g id="edge2" class="edge">
<title>CadastrarProdutoComponent&#45;&gt;AppModule</title>
<path fill="none" stroke="black" d="M1346,-122.13C1346,-142.57 1346,-173 1346,-173 1346,-173 839.94,-173 839.94,-173"/>
<polygon fill="black" stroke="black" points="839.94,-169.5 829.94,-173 839.94,-176.5 839.94,-169.5"/>
</g>
<!-- EditarProdutoComponent -->
<g id="node3" class="node">
<title>EditarProdutoComponent</title>
<polygon fill="#ffffb3" stroke="black" points="1237.88,-122 1078.12,-122 1078.12,-86 1237.88,-86 1237.88,-122"/>
<text text-anchor="middle" x="1158" y="-99.8" font-family="Times,serif" font-size="14.00">EditarProdutoComponent</text>
</g>
<!-- EditarProdutoComponent&#45;&gt;AppModule -->
<g id="edge3" class="edge">
<title>EditarProdutoComponent&#45;&gt;AppModule</title>
<path fill="none" stroke="black" d="M1158,-122.27C1158,-140.56 1158,-166 1158,-166 1158,-166 839.72,-166 839.72,-166"/>
<polygon fill="black" stroke="black" points="839.72,-162.5 829.72,-166 839.72,-169.5 839.72,-162.5"/>
</g>
<!-- FooterComponent -->
<g id="node4" class="node">
<title>FooterComponent</title>
<polygon fill="#ffffb3" stroke="black" points="1059.88,-122 942.12,-122 942.12,-86 1059.88,-86 1059.88,-122"/>
<text text-anchor="middle" x="1001" y="-99.8" font-family="Times,serif" font-size="14.00">FooterComponent</text>
</g>
<!-- FooterComponent&#45;&gt;AppModule -->
<g id="edge4" class="edge">
<title>FooterComponent&#45;&gt;AppModule</title>
<path fill="none" stroke="black" d="M1001,-122.01C1001,-138.05 1001,-159 1001,-159 1001,-159 839.83,-159 839.83,-159"/>
<polygon fill="black" stroke="black" points="839.83,-155.5 829.83,-159 839.83,-162.5 839.83,-155.5"/>
</g>
<!-- HomeComponent -->
<g id="node5" class="node">
<title>HomeComponent</title>
<polygon fill="#ffffb3" stroke="black" points="923.55,-122 808.45,-122 808.45,-86 923.55,-86 923.55,-122"/>
<text text-anchor="middle" x="866" y="-99.8" font-family="Times,serif" font-size="14.00">HomeComponent</text>
</g>
<!-- HomeComponent&#45;&gt;AppModule -->
<g id="edge5" class="edge">
<title>HomeComponent&#45;&gt;AppModule</title>
<path fill="none" stroke="black" d="M819.03,-122.11C819.03,-122.11 819.03,-140.99 819.03,-140.99"/>
<polygon fill="black" stroke="black" points="815.53,-140.99 819.03,-150.99 822.53,-140.99 815.53,-140.99"/>
</g>
<!-- ListarProdutoComponent -->
<g id="node6" class="node">
<title>ListarProdutoComponent</title>
<polygon fill="#ffffb3" stroke="black" points="790.32,-122 631.68,-122 631.68,-86 790.32,-86 790.32,-122"/>
<text text-anchor="middle" x="711" y="-99.8" font-family="Times,serif" font-size="14.00">ListarProdutoComponent</text>
</g>
<!-- ListarProdutoComponent&#45;&gt;AppModule -->
<g id="edge6" class="edge">
<title>ListarProdutoComponent&#45;&gt;AppModule</title>
<path fill="none" stroke="black" d="M768.17,-122.11C768.17,-122.11 768.17,-140.99 768.17,-140.99"/>
<polygon fill="black" stroke="black" points="764.67,-140.99 768.17,-150.99 771.67,-140.99 764.67,-140.99"/>
</g>
<!-- LoginComponent -->
<g id="node7" class="node">
<title>LoginComponent</title>
<polygon fill="#ffffb3" stroke="black" points="613.28,-122 498.72,-122 498.72,-86 613.28,-86 613.28,-122"/>
<text text-anchor="middle" x="556" y="-99.8" font-family="Times,serif" font-size="14.00">LoginComponent</text>
</g>
<!-- LoginComponent&#45;&gt;AppModule -->
<g id="edge7" class="edge">
<title>LoginComponent&#45;&gt;AppModule</title>
<path fill="none" stroke="black" d="M556,-122.01C556,-138.05 556,-159 556,-159 556,-159 736.26,-159 736.26,-159"/>
<polygon fill="black" stroke="black" points="736.26,-162.5 746.26,-159 736.26,-155.5 736.26,-162.5"/>
</g>
<!-- NavbarComponent -->
<g id="node8" class="node">
<title>NavbarComponent</title>
<polygon fill="#ffffb3" stroke="black" points="480.03,-122 357.97,-122 357.97,-86 480.03,-86 480.03,-122"/>
<text text-anchor="middle" x="419" y="-99.8" font-family="Times,serif" font-size="14.00">NavbarComponent</text>
</g>
<!-- NavbarComponent&#45;&gt;AppModule -->
<g id="edge8" class="edge">
<title>NavbarComponent&#45;&gt;AppModule</title>
<path fill="none" stroke="black" d="M419,-122.27C419,-140.56 419,-166 419,-166 419,-166 736.03,-166 736.03,-166"/>
<polygon fill="black" stroke="black" points="736.03,-169.5 746.03,-166 736.03,-162.5 736.03,-169.5"/>
</g>
<!-- PaginaProdutoComponent -->
<g id="node9" class="node">
<title>PaginaProdutoComponent</title>
<polygon fill="#ffffb3" stroke="black" points="339.77,-122 176.23,-122 176.23,-86 339.77,-86 339.77,-122"/>
<text text-anchor="middle" x="258" y="-99.8" font-family="Times,serif" font-size="14.00">PaginaProdutoComponent</text>
</g>
<!-- PaginaProdutoComponent&#45;&gt;AppModule -->
<g id="edge9" class="edge">
<title>PaginaProdutoComponent&#45;&gt;AppModule</title>
<path fill="none" stroke="black" d="M258,-122.13C258,-142.57 258,-173 258,-173 258,-173 735.97,-173 735.97,-173"/>
<polygon fill="black" stroke="black" points="735.97,-176.5 745.97,-173 735.97,-169.5 735.97,-176.5"/>
</g>
<!-- AppComponent  -->
<g id="node12" class="node">
<title>AppComponent </title>
<polygon fill="#80b1d3" stroke="black" points="842.44,-252 733.56,-252 733.56,-216 842.44,-216 842.44,-252"/>
<text text-anchor="middle" x="788" y="-229.8" font-family="Times,serif" font-size="14.00">AppComponent </text>
</g>
<!-- AppModule&#45;&gt;AppComponent  -->
<g id="edge11" class="edge">
<title>AppModule&#45;&gt;AppComponent </title>
<path fill="none" stroke="black" stroke-dasharray="1,5" d="M788,-187.11C788,-187.11 788,-205.99 788,-205.99"/>
<polygon fill="black" stroke="black" points="784.5,-205.99 788,-215.99 791.5,-205.99 784.5,-205.99"/>
</g>
<!-- AppRoutingModule -->
<g id="node11" class="node">
<title>AppRoutingModule</title>
<polygon fill="#8dd3c7" stroke="black" points="152.27,-122 149.27,-126 128.27,-126 125.27,-122 23.73,-122 23.73,-86 152.27,-86 152.27,-122"/>
<text text-anchor="middle" x="88" y="-99.8" font-family="Times,serif" font-size="14.00">AppRoutingModule</text>
</g>
<!-- AppRoutingModule&#45;&gt;AppModule -->
<g id="edge10" class="edge">
<title>AppRoutingModule&#45;&gt;AppModule</title>
<path fill="none" stroke="black" d="M88,-122.01C88,-144.49 88,-180 88,-180 88,-180 736.31,-180 736.31,-180"/>
<polygon fill="black" stroke="black" points="736.31,-183.5 746.31,-180 736.31,-176.5 736.31,-183.5"/>
</g>
</g>
</svg>
